<svg width="48" height="48" viewBox="0 0 40 40" fill="none" xmlns="http://www.w3.org/2000/svg">
<circle opacity="0.2" cx="20" cy="20" r="20" fill="#333333"/>
<path d="M20 17.9167V10.625M20 17.9167C18.8494 17.9167 17.9167 18.8494 17.9167 20M20 17.9167C21.1506 17.9167 22.0833 18.8494 22.0833 20M20 10.625C14.8223 10.625 10.625 14.8223 10.625 20M20 10.625C25.1777 10.625 29.375 14.8223 29.375 20M21.473 18.5268L26.6291 13.3708M22.0833 20H29.375M22.0833 20C22.0833 21.1506 21.1506 22.0833 20 22.0833M29.375 20C29.375 25.1777 25.1777 29.375 20 29.375M21.4732 21.473L26.6292 26.6291M20 22.0833V29.375M20 22.0833C18.8494 22.0833 17.9167 21.1506 17.9167 20M20 29.375C14.8223 29.375 10.625 25.1777 10.625 20M18.527 21.4732L13.3709 26.6292M17.9167 20H10.625M18.5268 18.527L13.3708 13.3709" stroke="black" stroke-width="2" stroke-linecap="round" stroke-linejoin="round"/>
</svg>
