<svg width="48" height="48" viewBox="0 0 40 40" fill="none" xmlns="http://www.w3.org/2000/svg">
<circle opacity="0.2" cx="20" cy="20" r="20" fill="#333333"/>
<path d="M16.5627 27.6563L10.0522 21.1458C9.896 20.9875 9.77881 20.8134 9.70068 20.6235C9.62256 20.4335 9.5835 20.237 9.5835 20.0339C9.5835 19.8307 9.62256 19.6354 9.70068 19.4479C9.77881 19.2604 9.896 19.0885 10.0522 18.9323L16.5627 12.4219L14.1408 10C13.9845 9.84375 13.9064 9.66146 13.9064 9.45313C13.9064 9.24479 13.9845 9.0625 14.1408 8.90625C14.297 8.75 14.483 8.67188 14.6987 8.67188C14.9144 8.67188 15.1017 8.75 15.2606 8.90625L25.2866 18.9323C25.4511 19.0885 25.5703 19.2604 25.6444 19.4479C25.7184 19.6354 25.7554 19.8307 25.7554 20.0339C25.7554 20.237 25.7184 20.4335 25.6444 20.6235C25.5703 20.8134 25.4511 20.9875 25.2866 21.1458L18.7762 27.6563C18.62 27.8125 18.4481 27.9297 18.2606 28.0078C18.0731 28.0859 17.8778 28.125 17.6746 28.125C17.4715 28.125 17.275 28.0859 17.085 28.0078C16.8951 27.9297 16.721 27.8125 16.5627 27.6563ZM17.6825 13.5417L11.172 20.0521H24.1929L17.6825 13.5417ZM28.3245 28.125C27.7456 28.125 27.2552 27.9238 26.8532 27.5213C26.4512 27.1188 26.2502 26.6256 26.2502 26.0417C26.2502 25.5854 26.337 25.1545 26.5106 24.749C26.6842 24.3434 26.9099 23.967 27.1877 23.6198L27.8647 22.7344C27.9863 22.5781 28.1425 22.5 28.3335 22.5C28.5245 22.5 28.6807 22.5781 28.8022 22.7344L29.4793 23.6198C29.7397 23.967 29.9611 24.3434 30.1434 24.749C30.3257 25.1545 30.4168 25.5854 30.4168 26.0417C30.4168 26.6256 30.2128 27.1188 29.8048 27.5213C29.3969 27.9238 28.9034 28.125 28.3245 28.125Z" fill="black"/>
</svg>
