<svg xmlns="http://www.w3.org/2000/svg" width="100.182" height="51.591" viewBox="0 0 100.182 51.591"><defs><style>.a{fill:#fff;stroke:#3199a9;stroke-miterlimit:10;stroke-width:3px;}.b,.c{fill:#3199a9;}.c{opacity:0.498;isolation:isolate;}</style></defs><g transform="translate(-971.221 -502.111)"><ellipse class="a" cx="48.591" cy="24.296" rx="48.591" ry="24.296" transform="translate(972.721 503.611)"/><path class="b" d="M990.056,527.248a3.775,3.775,0,0,0,1.71-.38l22.822-11.41,22.822,11.41a4.514,4.514,0,0,0,3.517.048c.951-.475,1.046-1.236.1-1.76l-.1-.047L1016.3,512.794a4.515,4.515,0,0,0-3.519,0l-24.628,12.314c-.951.476-1.046,1.236-.1,1.759a5.924,5.924,0,0,0,2,.38Z" transform="translate(6.153 3.702)"/><path class="c" d="M990.056,532.34a3.793,3.793,0,0,0,1.71-.38l22.822-11.412,22.822,11.412a4.508,4.508,0,0,0,3.517.047c.951-.476,1.046-1.236.1-1.759l-.1-.048L1016.3,517.885a4.516,4.516,0,0,0-3.519,0L988.154,530.2c-.951.476-1.046,1.236-.1,1.76a5.959,5.959,0,0,0,2,.38Z" transform="translate(6.153 5.837)"/></g></svg>